<svg version="1.1" id="Capa_1" xmlns="http://www.w3.org/2000/svg" xmlns:xlink="http://www.w3.org/1999/xlink" x="0px" y="0px" viewBox="0 0 77.88 39.06" style="enable-background:new 0 0 77.88 39.06" xml:space="preserve"><style type="text/css">.st0{fill:url(#SVGID_1_)}.st1{fill:url(#SVGID_2_)}.st2{fill:url(#SVGID_3_)}</style><g><linearGradient id="SVGID_1_" gradientUnits="userSpaceOnUse" x1="-2.2501" y1="-18.9019" x2="65.2145" y2="94.484"><stop offset="0" style="stop-color:#FFFFFF"></stop><stop offset="0.0441" style="stop-color:#C2EDE7"></stop><stop offset="0.1201" style="stop-color:#5DCEBE"></stop><stop offset="0.2611" style="stop-color:#459ACE"></stop><stop offset="0.3685" style="stop-color:#3779D7"></stop><stop offset="0.4274" style="stop-color:#316DDB"></stop><stop offset="0.5098" style="stop-color:#3956CC"></stop><stop offset="0.6267" style="stop-color:#423BBA"></stop><stop offset="0.7464" style="stop-color:#4928AE"></stop><stop offset="0.8692" style="stop-color:#4D1DA6"></stop><stop offset="1" style="stop-color:#4E19A4"></stop></linearGradient><path class="st0" d="M35.54,35.96c0,1.3-0.33,3.1-3.6,3.1c-3.26,0-6.04-1.47-10.28-6.69C18.61,21.18,14.87,14.1,11.57,9.61
                  		C7.6,4.22,4.23,2.55,3.37,1.99c0,0-7.35-2.28-0.33-1.96c4.62,0.22,8.63,1.47,12.09,3.41C30.95,12.21,35.54,34.89,35.54,35.96z"></path><linearGradient id="SVGID_2_" gradientUnits="userSpaceOnUse" x1="13.3848" y1="-28.2046" x2="80.8494" y2="85.1812"><stop offset="0" style="stop-color:#FFFFFF"></stop><stop offset="0.0441" style="stop-color:#C2EDE7"></stop><stop offset="0.1201" style="stop-color:#5DCEBE"></stop><stop offset="0.2611" style="stop-color:#459ACE"></stop><stop offset="0.3685" style="stop-color:#3779D7"></stop><stop offset="0.4274" style="stop-color:#316DDB"></stop><stop offset="0.5098" style="stop-color:#3956CC"></stop><stop offset="0.6267" style="stop-color:#423BBA"></stop><stop offset="0.7464" style="stop-color:#4928AE"></stop><stop offset="0.8692" style="stop-color:#4D1DA6"></stop><stop offset="1" style="stop-color:#4E19A4"></stop></linearGradient><path class="st1" d="M56.71,35.96c0,1.3-0.33,3.1-3.59,3.1c-3.27,0-6.05-1.47-10.29-6.69C36.11,7.76,26.12,3.02,24.54,1.99
                  		c0,0-7.35-2.28-0.33-1.96C49.88,1.23,56.71,34.65,56.71,35.96z"></path><linearGradient id="SVGID_3_" gradientUnits="userSpaceOnUse" x1="29.023" y1="-37.5093" x2="96.4875" y2="75.8765"><stop offset="0" style="stop-color:#FFFFFF"></stop><stop offset="0.0441" style="stop-color:#C2EDE7"></stop><stop offset="0.1201" style="stop-color:#5DCEBE"></stop><stop offset="0.2611" style="stop-color:#459ACE"></stop><stop offset="0.3685" style="stop-color:#3779D7"></stop><stop offset="0.4274" style="stop-color:#316DDB"></stop><stop offset="0.5098" style="stop-color:#3956CC"></stop><stop offset="0.6267" style="stop-color:#423BBA"></stop><stop offset="0.7464" style="stop-color:#4928AE"></stop><stop offset="0.8692" style="stop-color:#4D1DA6"></stop><stop offset="1" style="stop-color:#4E19A4"></stop></linearGradient><path class="st2" d="M77.88,35.96c0,1.3-0.33,3.1-3.59,3.1c-1.96,0-3.74-0.53-5.77-2.08c-1.36-1.03-2.82-2.52-4.52-4.61
                  		C57.28,7.76,47.3,3.02,45.71,1.99c0,0-7.35-2.28-0.33-1.96C62.21,0.82,70.94,15.44,74.97,25.8v0.01
                  		C77.07,31.25,77.88,35.51,77.88,35.96z"></path></g></svg>